<svg xmlns="http://www.w3.org/2000/svg" viewBox="0 0 256 256" shape-rendering="geometricPrecision">
  <style>
    .ink { stroke: #1c1a16; }
    .knock { stroke: #f8f7f4; }
    @media (prefers-color-scheme: dark) {
      .ink { stroke: #f3efe7; }
      .knock { stroke: #16140f; }
    }
  </style>
  <g class="ink" stroke-width="15" stroke-linecap="butt" fill="none">
    <line x1="40"  y1="228" x2="40"  y2="256"/>
    <line x1="76"  y1="212" x2="76"  y2="256"/>
    <line x1="112" y1="188" x2="112" y2="256"/>
    <line x1="148" y1="156" x2="148" y2="256"/>
    <line x1="184" y1="112" x2="184" y2="256"/>
    <line x1="220" y1="60"  x2="220" y2="256"/>
  </g>
  <path class="knock" d="M0 256 Q 209 219 256 0" stroke-width="25" fill="none" stroke-linecap="butt"/>
  <path d="M0 256 Q 209 219 256 0" stroke="#c97a3a" stroke-width="17" fill="none" stroke-linecap="butt"/>
  <g fill="#c97a3a">
    <path d="M70 8 L86 64 L142 80 L86 96 L70 152 L54 96 L-2 80 L54 64 Z"/>
    <path d="M150 6 L157 29 L180 36 L157 43 L150 66 L143 43 L120 36 L143 29 Z"/>
    <path d="M120 100 L125 117 L142 122 L125 127 L120 144 L115 127 L98 122 L115 117 Z"/>
  </g>
</svg>
